# xmcd CD database file
#
# Track frame offsets:
#	150
#	26660
#	56032
#	81327
#
# Disc length: 1475 seconds
#
# Revision: 0
# Processed by: cddbd v1.5.1PL0 Copyright (c) Steve Scherf et al.
# Submitted via: CDex 1.51
#
DISCID=2e05c104
DTITLE=Captain Funk - Bustin' Loose ep
DYEAR=1998
DGENRE=Techno
TTITLE0=BUSTIN' LOOSE
TTITLE1=KUNG-FU SKA
TTITLE2=TWIST and SHOUT
TTITLE3=PARTY UP
EXTD=YEAR: 1998
EXTT0=
EXTT1=
EXTT2=
EXTT3=
PLAYORDER=
